<?xml version="1.0" standalone="no"?>
<!DOCTYPE svg PUBLIC "-//W3C//DTD SVG 20010904//EN"
 "http://www.w3.org/TR/2001/REC-SVG-20010904/DTD/svg10.dtd">
<svg version="1.0" xmlns="http://www.w3.org/2000/svg"
 width="512.000000pt" height="512.000000pt" viewBox="0 0 512.000000 512.000000"
 preserveAspectRatio="xMidYMid meet">

<g transform="translate(0.000000,512.000000) scale(0.100000,-0.100000)"
fill="#000000" stroke="none">
<path d="M2315 5109 c-800 -83 -1501 -518 -1927 -1196 -487 -774 -516 -1777
-75 -2578 200 -364 487 -676 841 -913 238 -159 600 -311 876 -366 214 -43 295
-51 530 -51 236 0 333 10 532 51 880 184 1615 842 1898 1702 92 278 125 491
125 802 0 301 -32 513 -116 775 -124 390 -330 728 -622 1024 -399 404 -893
653 -1462 737 -123 18 -478 26 -600 13z m1439 -1037 c154 -58 270 -178 322
-332 18 -52 19 -109 19 -1180 0 -1071 -1 -1128 -19 -1180 -52 -154 -168 -274
-322 -332 l-59 -23 -1135 0 -1135 0 -59 23 c-154 58 -270 178 -322 332 -18 52
-19 109 -19 1180 0 1071 1 1128 19 1180 61 180 207 312 391 350 22 4 540 7
1150 7 l1110 -2 59 -23z"/>
<path d="M1860 2530 l0 -902 488 5 c412 4 499 7 562 22 208 47 344 148 402
297 26 67 36 236 18 317 -31 141 -124 259 -238 301 -31 11 -64 23 -72 26 -10
4 1 14 34 31 67 34 136 106 172 178 27 57 29 67 29 185 0 115 -2 130 -27 182
-55 117 -123 175 -264 225 l-79 28 -512 3 -513 3 0 -901z m992 608 c66 -40 93
-97 93 -203 0 -64 -5 -90 -24 -129 -26 -52 -85 -98 -151 -116 -19 -5 -162 -10
-317 -10 l-283 0 0 246 0 245 318 -3 317 -3 47 -27z m-8 -702 c142 -43 210
-175 176 -339 -16 -79 -60 -134 -135 -172 l-60 -30 -327 -3 -328 -3 0 280 0
281 313 0 c244 0 324 -3 361 -14z"/>
</g>
</svg>
