<?xml version="1.0" standalone="no"?>
<!DOCTYPE svg PUBLIC "-//W3C//DTD SVG 20010904//EN"
 "http://www.w3.org/TR/2001/REC-SVG-20010904/DTD/svg10.dtd">
<svg version="1.0" xmlns="http://www.w3.org/2000/svg"
 width="900.000000pt" height="900.000000pt" viewBox="0 0 900.000000 900.000000"
 preserveAspectRatio="xMidYMid meet">

<g transform="translate(0.000000,900.000000) scale(0.100000,-0.100000)"
fill="#000000" stroke="none">
<path d="M1130 8233 c-1 -19 742 -6726 745 -6731 1 -1 592 -171 1312 -377
l1310 -375 1313 375 c722 206 1314 376 1315 377 1 2 358 3208 571 5133 23 215
72 656 108 980 36 325 66 600 66 613 l0 22 -3370 0 c-3203 0 -3370 -1 -3370
-17z m5240 -1525 c0 -24 -7 -146 -15 -273 -22 -355 -122 -1961 -145 -2325 -11
-179 -33 -550 -50 -825 -17 -275 -34 -503 -38 -506 -4 -3 -43 -17 -87 -31
-337 -109 -972 -317 -1222 -399 l-303 -100 -257 85 c-142 46 -505 165 -806
264 -301 99 -550 181 -552 183 -2 2 -15 218 -29 479 -14 261 -29 512 -32 558
l-6 82 410 0 410 0 6 -112 c3 -62 9 -178 13 -257 l8 -144 418 -141 417 -141
413 139 c226 76 416 142 420 146 9 8 55 650 60 820 l2 95 -800 1 c-440 0 -843
1 -896 2 l-97 2 -6 88 c-6 82 -36 666 -36 705 0 16 51 17 939 17 l940 0 5 43
c4 23 13 139 22 257 8 118 19 267 24 330 5 63 10 130 10 148 l0 32 -1410 0
-1410 0 -4 23 c-4 21 -39 477 -53 695 l-6 102 1871 0 1872 0 0 -42z"/>
</g>
</svg>
