<?xml version="1.0" standalone="no"?>
<!DOCTYPE svg PUBLIC "-//W3C//DTD SVG 20010904//EN"
 "http://www.w3.org/TR/2001/REC-SVG-20010904/DTD/svg10.dtd">
<svg version="1.0" xmlns="http://www.w3.org/2000/svg"
 width="920.000000pt" height="550.000000pt" viewBox="0 0 920.000000 550.000000"
 preserveAspectRatio="xMidYMid meet">

<g transform="translate(0.000000,550.000000) scale(0.100000,-0.100000)"
fill="#000000" stroke="none">
<path d="M4340 5235 c-223 -27 -259 -33 -350 -57 -347 -92 -696 -264 -955
-473 -426 -342 -731 -824 -869 -1371 -81 -320 -81 -847 -1 -1164 39 -155 123
-388 178 -495 29 -55 52 -102 52 -105 1 -20 155 -260 210 -325 22 -27 48 -61
57 -75 52 -82 347 -362 468 -443 30 -21 73 -50 95 -66 82 -59 283 -165 410
-216 164 -66 259 -96 410 -129 374 -82 687 -86 1029 -15 77 17 157 32 176 36
67 10 347 116 465 175 199 100 450 278 623 442 162 154 344 397 465 621 80
148 179 393 203 504 81 360 100 523 91 756 -9 219 -53 475 -115 670 -31 99
-129 341 -152 375 -9 14 -38 66 -65 115 -26 50 -60 108 -76 130 -16 22 -48 67
-71 100 -23 33 -54 74 -69 90 -14 17 -59 67 -98 112 -72 82 -215 215 -334 310
-84 67 -317 218 -337 218 -3 0 -47 22 -99 49 -163 84 -506 194 -661 211 -30 3
-82 10 -115 15 -109 17 -440 20 -565 5z m460 -2219 l0 -1244 -52 -12 c-116
-24 -322 -51 -481 -61 -274 -17 -479 8 -674 81 -233 88 -387 259 -453 505 -28
103 -38 331 -20 442 37 230 142 419 305 546 175 136 374 193 640 184 83 -3
160 -8 173 -12 l22 -7 0 404 c0 223 3 408 7 411 3 4 125 7 270 7 l263 0 0
-1244z m860 959 l0 -275 -270 0 -270 0 0 275 0 275 270 0 270 0 0 -275z m0
-1233 c-1 -888 -12 -1062 -82 -1262 -74 -210 -205 -359 -417 -473 l-70 -38
-213 101 c-252 120 -278 133 -278 140 0 4 32 22 72 41 168 80 300 208 359 349
76 181 89 347 89 1185 l0 640 270 -3 270 -3 0 -677z"/>
<path d="M3961 3014 c-164 -44 -244 -126 -287 -296 -20 -77 -14 -259 10 -335
36 -112 118 -194 229 -229 64 -20 194 -29 282 -19 l65 7 -2 431 -3 432 -50 11
c-69 17 -180 15 -244 -2z"/>
</g>
</svg>
