<?xml version="1.0" standalone="no"?>
<!DOCTYPE svg PUBLIC "-//W3C//DTD SVG 20010904//EN"
 "http://www.w3.org/TR/2001/REC-SVG-20010904/DTD/svg10.dtd">
<svg version="1.0" xmlns="http://www.w3.org/2000/svg"
 width="256.000000pt" height="256.000000pt" viewBox="0 0 256.000000 256.000000"
 preserveAspectRatio="xMidYMid meet">

<g transform="translate(0.000000,256.000000) scale(0.100000,-0.100000)"
fill="#000000" stroke="none">
<path d="M0 1280 l0 -1280 1280 0 1280 0 0 1280 0 1280 -1280 0 -1280 0 0
-1280z m2056 838 c-3 -29 -36 -388 -72 -798 -36 -410 -67 -746 -67 -746 -1 -1
-145 -42 -321 -91 l-318 -89 -317 89 c-174 49 -317 90 -318 91 0 0 -31 336
-67 746 -36 410 -69 769 -72 798 l-6 52 782 0 782 0 -6 -52z"/>
<path d="M794 1788 c9 -73 46 -502 46 -522 0 -14 33 -16 341 -16 l341 0 -7
-67 c-4 -38 -10 -95 -14 -128 l-6 -59 -109 -29 -109 -29 -104 28 c-57 15 -106
30 -108 34 -3 4 -8 40 -11 79 l-7 71 -98 0 -98 0 5 -52 c3 -29 9 -97 13 -151
5 -54 10 -99 12 -102 2 -2 92 -28 200 -58 l196 -55 199 55 c109 30 200 56 201
57 4 3 53 533 53 570 l0 36 -354 0 -353 0 -7 61 c-3 34 -6 79 -6 100 l0 39
370 0 369 0 5 33 c3 17 8 60 11 95 l6 62 -491 0 -491 0 5 -52z"/>
</g>
</svg>
