<?xml version="1.0" standalone="no"?>
<!DOCTYPE svg PUBLIC "-//W3C//DTD SVG 20010904//EN"
 "http://www.w3.org/TR/2001/REC-SVG-20010904/DTD/svg10.dtd">
<svg version="1.0" xmlns="http://www.w3.org/2000/svg"
 width="512.000000pt" height="512.000000pt" viewBox="0 0 512.000000 512.000000"
 preserveAspectRatio="xMidYMid meet">

<g transform="translate(0.000000,512.000000) scale(0.100000,-0.100000)"
fill="#000000" stroke="none">
<path d="M2315 5109 c-800 -83 -1501 -518 -1927 -1196 -487 -774 -516 -1777
-75 -2578 200 -364 487 -676 841 -913 238 -159 600 -311 876 -366 214 -43 295
-51 530 -51 236 0 333 10 532 51 880 184 1615 842 1898 1702 92 278 125 491
125 802 0 301 -32 513 -116 775 -124 390 -330 728 -622 1024 -399 404 -893
653 -1462 737 -123 18 -478 26 -600 13z m1630 -2549 l0 -1385 -1385 0 -1385 0
-3 1375 c-1 756 0 1381 3 1388 3 10 286 12 1387 10 l1383 -3 0 -1385z"/>
<path d="M3192 2680 c-62 -13 -142 -52 -184 -89 -21 -18 -50 -59 -67 -92 -73
-147 -39 -328 83 -434 49 -44 72 -56 289 -159 91 -44 122 -64 137 -89 43 -70
10 -149 -75 -180 -105 -37 -233 2 -302 93 -19 25 -40 44 -47 42 -20 -6 -186
-104 -192 -114 -11 -17 68 -118 127 -162 122 -92 296 -126 460 -92 93 20 156
53 216 112 41 41 55 64 72 119 66 212 -21 385 -248 491 -245 116 -262 125
-281 157 -67 109 47 216 173 163 18 -7 49 -32 68 -54 l35 -41 84 56 c47 30 91
58 99 62 38 22 -93 156 -186 191 -65 24 -194 34 -261 20z"/>
<path d="M2420 2193 c0 -456 -1 -479 -20 -510 -25 -41 -52 -55 -109 -56 -62
-1 -104 24 -144 82 l-32 49 -95 -59 c-52 -32 -99 -60 -105 -62 -14 -5 16 -64
58 -112 80 -92 223 -143 365 -130 150 13 254 79 308 197 l29 63 3 508 3 507
-131 0 -130 0 0 -477z"/>
</g>
</svg>
