<?xml version="1.0" standalone="no"?>
<!DOCTYPE svg PUBLIC "-//W3C//DTD SVG 20010904//EN"
 "http://www.w3.org/TR/2001/REC-SVG-20010904/DTD/svg10.dtd">
<svg version="1.0" xmlns="http://www.w3.org/2000/svg"
 width="512.000000pt" height="512.000000pt" viewBox="0 0 512.000000 512.000000"
 preserveAspectRatio="xMidYMid meet">

<g transform="translate(0.000000,512.000000) scale(0.100000,-0.100000)"
fill="#000000" stroke="none">
<path d="M2315 5109 c-800 -83 -1501 -518 -1927 -1196 -487 -774 -516 -1777
-75 -2578 200 -364 487 -676 841 -913 238 -159 600 -311 876 -366 214 -43 295
-51 530 -51 236 0 333 10 532 51 880 184 1615 842 1898 1702 92 278 125 491
125 802 0 301 -32 513 -116 775 -124 390 -330 728 -622 1024 -399 404 -893
653 -1462 737 -123 18 -478 26 -600 13z m535 -650 c161 -15 247 -36 338 -80
112 -55 189 -131 239 -235 l38 -79 3 -509 c2 -344 -1 -526 -8 -562 -26 -123
-118 -248 -229 -308 -102 -55 -113 -56 -662 -56 -314 0 -528 -4 -565 -11 -102
-18 -219 -82 -300 -163 -85 -86 -128 -158 -154 -262 -17 -66 -20 -111 -20
-316 l0 -238 -172 0 c-270 0 -357 27 -468 147 -74 79 -122 177 -160 325 -51
202 -63 312 -57 508 8 276 62 500 153 633 58 84 119 138 209 182 128 64 138
65 868 65 l657 0 0 55 0 55 -457 2 -458 3 0 235 c1 213 3 242 23 306 25 81 78
149 147 189 181 107 613 154 1035 114z m1232 -987 c68 -27 149 -97 194 -169
100 -155 174 -480 174 -763 0 -175 -17 -283 -71 -444 -88 -265 -170 -378 -314
-432 -47 -18 -95 -19 -777 -22 l-728 -3 0 -54 0 -55 456 0 455 0 -3 -222 c-3
-207 -5 -227 -27 -282 -35 -88 -139 -189 -251 -243 -272 -132 -639 -171 -957
-102 -218 47 -380 125 -475 227 -63 69 -96 132 -109 211 -13 78 -11 920 2
1001 26 162 143 305 299 367 40 16 103 18 600 23 536 6 557 7 620 28 191 64
345 225 395 412 11 41 15 117 15 296 0 132 3 244 7 248 5 4 105 6 223 4 195
-4 220 -6 272 -26z"/>
<path d="M1997 4187 c-80 -20 -136 -113 -122 -199 8 -47 60 -109 105 -128 41
-17 125 -8 158 17 49 36 72 81 72 140 0 58 -9 83 -44 121 -42 47 -106 66 -169
49z"/>
<path d="M2995 1274 c-46 -24 -63 -43 -81 -90 -21 -55 -14 -113 19 -163 34
-51 85 -74 153 -69 99 8 160 83 152 185 -5 60 -26 95 -78 131 -40 27 -120 30
-165 6z"/>
</g>
</svg>
