<?xml version="1.0" standalone="no"?>
<!DOCTYPE svg PUBLIC "-//W3C//DTD SVG 20010904//EN"
 "http://www.w3.org/TR/2001/REC-SVG-20010904/DTD/svg10.dtd">
<svg version="1.0" xmlns="http://www.w3.org/2000/svg"
 width="1400.000000pt" height="788.000000pt" viewBox="0 0 1400.000000 788.000000"
 preserveAspectRatio="xMidYMid meet">

<g transform="translate(0.000000,788.000000) scale(0.100000,-0.100000)"
fill="#000000" stroke="none">
<path d="M0 3940 l0 -3940 7000 0 7000 0 0 3940 0 3940 -7000 0 -7000 0 0
-3940z m8195 2918 c122 -26 230 -122 296 -263 59 -126 79 -228 86 -437 6 -195
-4 -322 -43 -537 -14 -73 -23 -135 -22 -136 2 -1 41 -15 88 -30 402 -131 745
-347 878 -553 63 -98 85 -176 80 -282 -4 -80 -8 -97 -47 -177 -37 -74 -59
-103 -140 -183 -113 -112 -217 -183 -407 -278 -122 -61 -336 -147 -417 -167
-32 -9 -33 -11 -7 -145 98 -500 49 -918 -130 -1113 -99 -108 -192 -142 -369
-134 -95 3 -133 10 -209 36 -200 67 -421 199 -647 388 l-131 109 -128 -108
c-744 -624 -1309 -571 -1396 132 -23 187 -6 482 41 709 11 57 17 107 12 111
-4 4 -39 18 -78 30 -228 73 -504 209 -650 319 -200 151 -304 305 -313 462 -8
134 30 237 132 361 146 176 448 354 804 474 87 29 111 41 108 53 -14 47 -48
254 -61 371 -43 395 22 713 181 874 231 235 672 135 1164 -266 52 -42 114 -93
137 -113 l42 -36 103 89 c188 162 350 271 525 354 198 93 361 121 518 86z
m765 -4975 c49 -22 105 -65 120 -93 8 -15 0 -26 -47 -64 l-58 -45 -35 34 c-84
82 -250 67 -252 -24 -1 -44 24 -63 122 -91 167 -48 199 -61 237 -98 90 -87 83
-246 -13 -331 -54 -48 -117 -65 -230 -64 -100 1 -182 26 -235 71 -67 58 -68
65 -2 116 l57 46 31 -28 c58 -55 86 -66 157 -66 53 0 74 4 95 20 39 29 51 68
33 101 -17 30 -54 46 -208 93 -129 39 -183 82 -202 161 -25 102 12 194 99 246
65 39 81 42 196 39 64 -2 103 -9 135 -23z m-3861 7 c152 -17 214 -71 227 -197
12 -111 -37 -218 -112 -245 -24 -8 -34 -17 -31 -28 2 -9 45 -78 96 -153 50
-75 91 -139 91 -142 0 -3 -39 -5 -87 -5 l-88 0 -96 143 c-96 141 -96 142 -138
145 l-41 3 0 -145 0 -146 -80 0 -80 0 0 383 c0 211 3 387 7 390 10 10 236 8
332 -3z m3281 -312 c0 -292 -2 -327 -19 -363 -30 -66 -81 -98 -178 -111 -50
-6 -176 9 -202 25 -21 14 25 145 48 136 42 -16 111 -27 135 -21 14 3 34 18 43
33 16 24 18 61 21 325 l4 298 74 0 74 0 0 -322z m-880 212 l0 -79 68 -3 67 -3
0 -55 0 -55 -67 -3 -68 -3 0 -164 c0 -154 1 -166 21 -186 18 -18 28 -20 73
-15 l52 7 11 -53 c13 -63 12 -64 -74 -74 -48 -5 -76 -2 -121 12 -50 17 -60 25
-81 63 -23 42 -25 57 -29 228 l-5 183 -33 0 -34 0 0 60 0 60 35 0 35 0 0 73
c0 41 3 77 7 80 3 4 37 7 75 7 l68 0 0 -80z m-1639 -98 c77 -40 106 -91 121
-211 8 -67 8 -95 0 -99 -6 -4 -94 -7 -196 -6 l-186 0 0 -23 c0 -48 28 -93 67
-109 50 -22 143 -15 181 13 l28 20 52 -37 52 -38 -39 -35 c-52 -47 -100 -61
-206 -61 -79 0 -98 3 -147 27 -104 51 -133 114 -132 282 0 130 10 165 60 224
48 57 106 79 215 80 66 1 85 -3 130 -27z m610 13 c24 -9 54 -26 68 -38 47 -43
51 -70 51 -317 l0 -230 -65 0 c-63 0 -65 1 -65 25 0 31 -1 31 -45 1 -74 -51
-192 -56 -256 -13 -60 41 -74 70 -74 152 0 82 14 111 75 153 44 29 87 40 194
48 95 8 104 14 89 61 -11 33 -63 63 -111 63 -40 0 -101 -24 -117 -47 -12 -16
-18 -14 -71 21 l-58 39 38 33 c21 18 57 40 80 48 56 20 211 20 267 1z m659 -6
c48 -22 90 -56 90 -73 0 -6 -22 -26 -49 -44 l-49 -34 -31 23 c-24 17 -45 23
-84 23 -99 0 -132 -46 -132 -184 0 -98 17 -140 67 -166 44 -23 130 -15 162 15
l24 22 51 -36 c28 -20 51 -40 51 -45 0 -16 -69 -68 -107 -81 -21 -7 -74 -13
-118 -13 -137 0 -232 62 -266 173 -23 76 -23 175 0 250 40 132 123 191 266
191 59 0 92 -6 125 -21z"/>
<path d="M5952 6638 c-55 -12 -116 -71 -147 -141 -48 -111 -59 -179 -59 -387
-1 -219 5 -287 37 -445 27 -129 9 -122 197 -82 69 14 197 36 285 47 88 12 169
23 180 26 11 2 49 41 85 91 82 110 206 259 285 341 33 35 61 69 63 76 6 25
-263 239 -413 328 -206 123 -389 175 -513 146z"/>
<path d="M7932 6630 c-185 -49 -462 -221 -685 -427 l-38 -35 63 -66 c82 -88
206 -235 293 -350 55 -73 76 -93 100 -97 17 -2 95 -14 175 -24 80 -11 212 -34
294 -51 82 -17 151 -29 154 -26 12 13 51 240 63 366 22 242 -2 452 -67 587
-65 136 -167 171 -352 123z"/>
<path d="M6974 5932 c-76 -83 -204 -237 -204 -244 0 -3 126 -5 280 -5 253 0
278 1 270 16 -10 19 -229 269 -256 293 -19 17 -22 14 -90 -60z"/>
<path d="M6697 5451 c-88 -7 -110 -12 -122 -27 -29 -37 -183 -281 -243 -386
-69 -119 -202 -382 -202 -398 0 -42 276 -531 405 -720 l52 -75 69 -8 c89 -11
697 -11 789 0 l70 8 58 85 c135 197 397 669 397 715 0 41 -232 458 -371 668
-62 92 -91 127 -109 131 -41 10 -677 15 -793 7z m462 -356 c164 -39 295 -167
342 -336 7 -24 12 -80 11 -124 -3 -363 -409 -579 -716 -381 -247 159 -285 507
-76 716 119 119 276 163 439 125z"/>
<path d="M6144 5385 c-221 -42 -274 -56 -274 -72 0 -17 91 -290 118 -353 l18
-43 68 124 c38 68 100 175 137 237 38 63 69 118 69 123 0 11 11 12 -136 -16z"/>
<path d="M7820 5399 c0 -6 33 -63 73 -128 39 -64 99 -167 132 -229 33 -61 63
-112 67 -112 11 0 138 358 138 390 0 9 -102 33 -250 60 -63 11 -125 23 -137
25 -13 3 -23 1 -23 -6z"/>
<path d="M5525 5226 c-166 -61 -246 -96 -348 -152 -145 -81 -212 -128 -292
-209 -80 -80 -125 -158 -125 -219 0 -145 198 -331 511 -480 116 -55 367 -152
374 -144 2 2 22 62 45 133 43 132 165 451 181 471 6 7 -2 37 -22 80 -48 107
-112 276 -160 421 -31 93 -48 133 -59 132 -8 0 -55 -15 -105 -33z"/>
<path d="M8450 5258 c0 -16 -131 -384 -172 -484 l-54 -131 19 -44 c59 -138
132 -328 167 -436 22 -68 42 -128 45 -133 9 -14 225 65 374 136 250 119 430
263 487 389 22 47 25 66 21 108 -17 141 -189 299 -483 446 -150 74 -404 168
-404 149z"/>
<path d="M5970 4274 c-56 -155 -103 -304 -97 -311 14 -14 395 -89 404 -79 3 3
-39 81 -95 173 -55 93 -111 191 -125 218 -50 99 -50 99 -87 -1z"/>
<path d="M8036 4267 c-27 -50 -87 -156 -134 -235 -46 -78 -82 -145 -80 -148
11 -10 391 65 406 81 11 11 -122 395 -136 395 -4 0 -29 -42 -56 -93z"/>
<path d="M5806 3723 c-3 -10 -14 -67 -25 -128 -84 -460 -28 -848 134 -933 67
-35 179 -34 292 4 175 57 429 220 641 410 l44 39 -28 30 c-73 76 -249 285
-320 378 l-79 104 -165 23 c-140 19 -368 61 -462 85 -20 5 -27 3 -32 -12z"/>
<path d="M8110 3705 c-134 -29 -241 -47 -427 -71 -40 -5 -47 -11 -122 -107
-83 -108 -187 -233 -284 -341 -32 -36 -56 -70 -52 -76 16 -26 220 -188 320
-255 141 -93 201 -125 322 -171 87 -33 109 -37 193 -38 79 -1 101 3 130 19
110 65 170 249 170 523 0 218 -48 545 -81 548 -8 1 -84 -13 -169 -31z"/>
<path d="M6775 3599 c-4 -6 119 -152 218 -259 l59 -65 65 70 c65 70 213 248
213 256 0 6 -551 5 -555 -2z"/>
<path d="M4920 1655 l0 -105 80 0 c128 0 170 27 170 108 0 75 -48 101 -182
102 l-68 0 0 -105z"/>
<path d="M5671 1597 c-13 -6 -32 -23 -42 -37 -19 -26 -29 -73 -16 -77 4 -2 57
-3 117 -3 104 0 110 1 110 20 0 77 -98 134 -169 97z"/>
<path d="M6331 1379 c-24 -5 -54 -15 -67 -24 -27 -18 -41 -74 -25 -104 23 -42
106 -40 172 4 37 24 39 28 39 80 l0 55 -37 -1 c-21 -1 -58 -5 -82 -10z"/>
</g>
</svg>
