<?xml version="1.0" standalone="no"?>
<!DOCTYPE svg PUBLIC "-//W3C//DTD SVG 20010904//EN"
 "http://www.w3.org/TR/2001/REC-SVG-20010904/DTD/svg10.dtd">
<svg version="1.0" xmlns="http://www.w3.org/2000/svg"
 width="320.000000pt" height="320.000000pt" viewBox="0 0 320.000000 320.000000"
 preserveAspectRatio="xMidYMid meet">

<g transform="translate(0.000000,320.000000) scale(0.100000,-0.100000)"
fill="#000000" stroke="none">
<path d="M1374 3185 c-791 -116 -1374 -788 -1374 -1585 0 -884 716 -1600 1600
-1600 884 0 1600 716 1600 1600 0 889 -722 1605 -1610 1599 -69 -1 -166 -7
-216 -14z m921 -405 c258 -82 361 -237 310 -465 -29 -130 -85 -225 -200 -340
-136 -137 -221 -184 -431 -242 -89 -25 -116 -27 -259 -28 -143 0 -166 3 -216
23 -66 26 -139 87 -162 133 -28 58 1 79 44 33 67 -74 234 -103 399 -69 292 60
531 225 628 435 20 43 26 71 26 131 1 68 -2 79 -27 112 -56 73 -158 107 -328
107 -201 0 -391 -50 -619 -164 -426 -212 -641 -439 -628 -661 8 -135 57 -198
307 -399 91 -73 174 -143 184 -154 17 -19 21 -19 70 -6 83 23 288 21 364 -4
84 -27 141 -61 192 -117 97 -105 117 -241 49 -338 -37 -53 -138 -100 -138 -64
0 6 16 22 35 34 48 31 79 95 72 149 -6 57 -49 128 -99 164 -85 62 -236 97
-363 85 -96 -9 -98 -11 -85 -71 7 -27 12 -90 12 -139 -1 -213 -109 -387 -297
-481 -139 -69 -312 -70 -381 -3 -49 47 -67 103 -63 191 9 170 123 296 420 468
l100 58 -78 56 c-43 30 -115 82 -160 113 -191 135 -298 244 -354 361 -43 90
-47 148 -15 248 91 286 438 573 926 767 212 84 334 107 545 103 121 -3 164 -8
220 -26z"/>
<path d="M1190 1013 c-188 -115 -294 -237 -307 -356 -11 -91 34 -119 136 -88
138 43 244 169 271 322 12 67 4 160 -15 165 -6 2 -44 -17 -85 -43z"/>
</g>
</svg>
