<svg version="1.1" id="Layer_1" xmlns="http://www.w3.org/2000/svg" xmlns:xlink="http://www.w3.org/1999/xlink" x="2rem" y="2rem"
	 width="2rem" viewBox="0 0 243 240" enable-background="new 0 0 243 240" xml:space="preserve">
<path fill="#07080A" opacity="1.000000" stroke="none" 
	d="
M160.000000,241.000000 
	C107.645775,241.000000 55.291542,241.000000 2.469159,240.531342 
	C2.000242,214.939621 2.021011,189.816513 1.955631,164.693619 
	C1.950690,162.794922 1.332906,160.897842 0.999999,159.000000 
	C1.000000,106.979103 1.000000,54.958210 1.468657,2.469255 
	C30.726574,2.000264 59.515873,2.018187 88.305000,1.955555 
	C90.204018,1.951424 92.101700,1.332800 94.000000,1.000000 
	C143.354233,1.000000 192.708450,1.000000 242.528305,1.468650 
	C242.996368,65.891769 242.989471,129.846268 243.043243,193.800690 
	C243.044983,195.867386 243.667084,197.933578 244.000000,200.000000 
	C244.000000,213.020889 244.000000,226.041794 243.531342,239.530548 
	C217.272980,239.999344 191.483215,239.979294 165.693665,240.044266 
	C163.794983,240.049042 161.897858,240.667068 160.000000,241.000000 
M103.948715,123.642952 
	C109.956802,134.131729 115.964890,144.620514 122.252014,155.596451 
	C126.825447,148.171585 131.154495,141.340103 135.213440,134.351730 
	C135.856491,133.244568 135.828110,131.120300 135.186996,129.989792 
	C127.323486,116.123421 119.304314,102.345024 111.258286,88.583130 
	C110.738884,87.694733 109.679771,86.520531 108.853355,86.505745 
	C100.322815,86.353134 91.788490,86.412010 82.624550,86.412010 
	C89.905487,99.120354 96.746933,111.061584 103.948715,123.642952 
M138.007935,86.333771 
	C136.612518,86.333771 135.217087,86.333771 133.821671,86.333771 
	C136.941010,89.279778 140.214294,91.443588 143.659729,93.285431 
	C146.127014,94.604401 147.247330,96.208214 147.038834,99.136009 
	C146.752487,103.156975 146.967178,107.213615 146.967178,111.254974 
	C147.282806,111.293083 147.598434,111.331192 147.914062,111.369308 
	C152.644577,103.170494 157.375092,94.971687 162.359192,86.333366 
	C153.891098,86.333366 146.393219,86.333366 138.007935,86.333771 
z"/>
<path fill="#0F1012" opacity="1.000000" stroke="none" 
	d="
M244.000000,199.531342 
	C243.667084,197.933578 243.044983,195.867386 243.043243,193.800690 
	C242.989471,129.846268 242.996368,65.891769 242.996964,1.468651 
	C243.333328,2.329681 243.957306,3.659147 243.958282,4.989071 
	C244.005966,69.680244 244.000000,134.371475 244.000000,199.531342 
z"/>
<path fill="#0F1012" opacity="1.000000" stroke="none" 
	d="
M93.531342,1.000000 
	C92.101700,1.332800 90.204018,1.951424 88.305000,1.955555 
	C59.515873,2.018187 30.726574,2.000264 1.468657,2.000598 
	C2.325538,1.666667 3.650532,1.044897 4.976694,1.042393 
	C34.338615,0.986972 63.700661,1.000000 93.531342,1.000000 
z"/>
<path fill="#0F1012" opacity="1.000000" stroke="none" 
	d="
M160.468658,241.000000 
	C161.897858,240.667068 163.794983,240.049042 165.693665,240.044266 
	C191.483215,239.979294 217.272980,239.999344 243.531342,239.999207 
	C242.675293,240.333344 241.351212,240.954605 240.025787,240.957458 
	C213.663055,241.014450 187.300171,241.000000 160.468658,241.000000 
z"/>
<path fill="#0F1012" opacity="1.000000" stroke="none" 
	d="
M0.999999,159.468658 
	C1.332906,160.897842 1.950690,162.794922 1.955631,164.693619 
	C2.021011,189.816513 2.000242,214.939621 2.000503,240.531342 
	C1.666668,239.675507 1.045523,238.351639 1.042562,237.026413 
	C0.985155,211.330139 1.000000,185.633713 0.999999,159.468658 
z"/>
<path fill="#F9FAFA" opacity="1.000000" stroke="none" 
	d="
M103.768539,123.322891 
	C96.746933,111.061584 89.905487,99.120354 82.624550,86.412010 
	C91.788490,86.412010 100.322815,86.353134 108.853355,86.505745 
	C109.679771,86.520531 110.738884,87.694733 111.258286,88.583130 
	C119.304314,102.345024 127.323486,116.123421 135.186996,129.989792 
	C135.828110,131.120300 135.856491,133.244568 135.213440,134.351730 
	C131.154495,141.340103 126.825447,148.171585 122.252014,155.596451 
	C115.964890,144.620514 109.956802,134.131729 103.768539,123.322891 
z"/>
<path fill="#EDEDED" opacity="1.000000" stroke="none" 
	d="
M138.451630,86.333572 
	C146.393219,86.333366 153.891098,86.333366 162.359192,86.333366 
	C157.375092,94.971687 152.644577,103.170494 147.914062,111.369308 
	C147.598434,111.331192 147.282806,111.293083 146.967178,111.254974 
	C146.967178,107.213615 146.752487,103.156975 147.038834,99.136009 
	C147.247330,96.208214 146.127014,94.604401 143.659729,93.285431 
	C140.214294,91.443588 136.941010,89.279778 133.821671,86.333771 
	C135.217087,86.333771 136.612518,86.333771 138.451630,86.333572 
z"/>
</svg>